<?xml version="1.0" encoding="UTF-8" standalone="no"?>
<!DOCTYPE svg PUBLIC "-//W3C//DTD SVG 1.1//EN" "http://www.w3.org/Graphics/SVG/1.1/DTD/svg11.dtd">
<svg width="100%" height="100%" viewBox="0 0 40 14" version="1.1" xmlns="http://www.w3.org/2000/svg" xmlns:xlink="http://www.w3.org/1999/xlink" xml:space="preserve" xmlns:serif="http://www.serif.com/" style="fill-rule:evenodd;clip-rule:evenodd;stroke-linejoin:round;stroke-miterlimit:2;">
    <g transform="matrix(1.01808,0,0,1.01808,-5.84893,4.748)">
        <g transform="matrix(11.25,0,0,11.25,5.37378,6.2091)">
            <path d="M0.573,-0.604L0.559,-0.69L0.033,-0.69L0.033,-0.604L0.253,-0.604L0.253,-0L0.347,-0L0.347,-0.604L0.573,-0.604Z" style="fill:rgb(114,118,125);fill-rule:nonzero;"/>
        </g>
        <g transform="matrix(11.25,0,0,11.25,10.695,6.2091)">
            <path d="M0.484,-0.238C0.484,-0.395 0.39,-0.487 0.262,-0.487C0.135,-0.487 0.043,-0.395 0.043,-0.238C0.043,-0.081 0.135,0.01 0.262,0.01C0.39,0.01 0.484,-0.081 0.484,-0.238ZM0.394,-0.238C0.394,-0.138 0.35,-0.064 0.262,-0.064C0.178,-0.064 0.133,-0.14 0.133,-0.238C0.133,-0.338 0.176,-0.412 0.262,-0.412C0.348,-0.412 0.394,-0.336 0.394,-0.238Z" style="fill:rgb(114,118,125);fill-rule:nonzero;"/>
        </g>
        <g transform="matrix(11.25,0,0,11.25,16.6238,6.2091)">
            <path d="M0.468,-0L0.468,-0.722L0.379,-0.708L0.379,-0.462C0.349,-0.474 0.306,-0.483 0.259,-0.483C0.143,-0.483 0.043,-0.399 0.043,-0.225C0.043,-0.065 0.128,0.01 0.231,0.01C0.301,0.01 0.35,-0.026 0.386,-0.069L0.397,-0L0.468,-0ZM0.379,-0.153C0.341,-0.102 0.299,-0.069 0.244,-0.069C0.18,-0.069 0.133,-0.124 0.133,-0.229C0.133,-0.347 0.187,-0.408 0.262,-0.408C0.313,-0.408 0.342,-0.4 0.379,-0.381L0.379,-0.153Z" style="fill:rgb(114,118,125);fill-rule:nonzero;"/>
        </g>
        <g transform="matrix(11.25,0,0,11.25,22.6763,6.2091)">
            <path d="M0.431,-0L0.431,-0.334C0.431,-0.44 0.375,-0.487 0.259,-0.487C0.185,-0.487 0.131,-0.47 0.074,-0.447L0.086,-0.37C0.138,-0.393 0.193,-0.411 0.251,-0.411C0.306,-0.411 0.342,-0.39 0.342,-0.33L0.342,-0.31C0.143,-0.289 0.041,-0.242 0.041,-0.123C0.041,-0.042 0.095,0.01 0.181,0.01C0.259,0.01 0.311,-0.025 0.349,-0.064L0.359,-0L0.431,-0ZM0.342,-0.131C0.302,-0.09 0.252,-0.064 0.2,-0.064C0.155,-0.064 0.129,-0.089 0.129,-0.128C0.129,-0.177 0.166,-0.225 0.342,-0.242L0.342,-0.131Z" style="fill:rgb(114,118,125);fill-rule:nonzero;"/>
        </g>
        <g transform="matrix(11.25,0,0,11.25,28.1888,6.2091)">
            <path d="M0.46,-0.477L0.369,-0.477L0.242,-0.104L0.112,-0.484L0.024,-0.47L0.198,0.002L0.18,0.051C0.166,0.089 0.141,0.107 0.104,0.107C0.087,0.107 0.069,0.104 0.054,0.1L0.066,0.178C0.075,0.18 0.085,0.182 0.097,0.182C0.176,0.182 0.227,0.153 0.268,0.042L0.46,-0.477Z" style="fill:rgb(114,118,125);fill-rule:nonzero;"/>
        </g>
        <g transform="matrix(11.25,0,0,11.25,36.0975,6.2091)">
            <path d="M0.431,-0L0.431,-0.334C0.431,-0.44 0.375,-0.487 0.259,-0.487C0.185,-0.487 0.131,-0.47 0.074,-0.447L0.086,-0.37C0.138,-0.393 0.193,-0.411 0.251,-0.411C0.306,-0.411 0.342,-0.39 0.342,-0.33L0.342,-0.31C0.143,-0.289 0.041,-0.242 0.041,-0.123C0.041,-0.042 0.095,0.01 0.181,0.01C0.259,0.01 0.311,-0.025 0.349,-0.064L0.359,-0L0.431,-0ZM0.342,-0.131C0.302,-0.09 0.252,-0.064 0.2,-0.064C0.155,-0.064 0.129,-0.089 0.129,-0.128C0.129,-0.177 0.166,-0.225 0.342,-0.242L0.342,-0.131Z" style="fill:rgb(114,118,125);fill-rule:nonzero;"/>
        </g>
        <g transform="matrix(11.25,0,0,11.25,41.7113,6.2091)">
            <path d="M0.299,0.002L0.287,-0.074C0.276,-0.072 0.262,-0.071 0.246,-0.071C0.196,-0.071 0.18,-0.095 0.18,-0.134L0.18,-0.402L0.295,-0.402L0.283,-0.477L0.18,-0.477L0.18,-0.649L0.093,-0.636L0.093,-0.477L0.021,-0.477L0.021,-0.402L0.093,-0.402L0.093,-0.118C0.093,-0.022 0.148,0.008 0.232,0.008C0.263,0.008 0.284,0.005 0.299,0.002Z" style="fill:rgb(114,118,125);fill-rule:nonzero;"/>
        </g>
    </g>
</svg>
