<?xml version="1.0" encoding="UTF-8" standalone="no"?>
<!DOCTYPE svg PUBLIC "-//W3C//DTD SVG 1.1//EN" "http://www.w3.org/Graphics/SVG/1.1/DTD/svg11.dtd">
<svg width="100%" height="100%" viewBox="0 0 58 14" version="1.1" xmlns="http://www.w3.org/2000/svg" xmlns:xlink="http://www.w3.org/1999/xlink" xml:space="preserve" xmlns:serif="http://www.serif.com/" style="fill-rule:evenodd;clip-rule:evenodd;stroke-linejoin:round;stroke-miterlimit:2;">
    <g transform="matrix(1.00559,0,0,1.01808,-5.77827,4.748)">
        <g transform="matrix(11.25,0,0,11.25,5.37378,6.2091)">
            <path d="M0.614,-0.69L0.51,-0.69L0.317,-0.36L0.119,-0.697L0.025,-0.677L0.269,-0.274L0.269,-0L0.363,-0L0.363,-0.274L0.614,-0.69Z" style="fill:rgb(114,118,125);fill-rule:nonzero;"/>
        </g>
        <g transform="matrix(11.25,0,0,11.25,11.2013,6.2091)">
            <path d="M0.456,-0.248C0.456,-0.38 0.392,-0.487 0.253,-0.487C0.133,-0.487 0.043,-0.393 0.043,-0.24C0.043,-0.065 0.14,0.01 0.264,0.01C0.343,0.01 0.404,-0.014 0.455,-0.054L0.442,-0.134C0.39,-0.093 0.34,-0.066 0.271,-0.066C0.188,-0.066 0.135,-0.118 0.132,-0.229L0.456,-0.229L0.456,-0.248ZM0.366,-0.296L0.136,-0.296C0.15,-0.378 0.197,-0.417 0.252,-0.417C0.321,-0.417 0.355,-0.373 0.366,-0.296Z" style="fill:rgb(114,118,125);fill-rule:nonzero;"/>
        </g>
        <g transform="matrix(11.25,0,0,11.25,16.815,6.2091)">
            <path d="M0.403,-0.133C0.403,-0.224 0.35,-0.258 0.232,-0.288C0.157,-0.307 0.133,-0.325 0.133,-0.357C0.133,-0.391 0.161,-0.412 0.215,-0.412C0.265,-0.412 0.318,-0.395 0.36,-0.371L0.374,-0.455C0.329,-0.475 0.276,-0.487 0.217,-0.487C0.113,-0.487 0.049,-0.431 0.049,-0.355C0.049,-0.27 0.094,-0.236 0.206,-0.208C0.292,-0.187 0.319,-0.171 0.319,-0.127C0.319,-0.087 0.283,-0.064 0.222,-0.064C0.157,-0.064 0.099,-0.088 0.054,-0.119L0.041,-0.035C0.082,-0.012 0.152,0.01 0.215,0.01C0.338,0.01 0.403,-0.046 0.403,-0.133Z" style="fill:rgb(114,118,125);fill-rule:nonzero;"/>
        </g>
        <g transform="matrix(11.25,0,0,11.25,21.7875,6.2091)">
            <path d="M0.299,0.002L0.287,-0.074C0.276,-0.072 0.262,-0.071 0.246,-0.071C0.196,-0.071 0.18,-0.095 0.18,-0.134L0.18,-0.402L0.295,-0.402L0.283,-0.477L0.18,-0.477L0.18,-0.649L0.093,-0.636L0.093,-0.477L0.021,-0.477L0.021,-0.402L0.093,-0.402L0.093,-0.118C0.093,-0.022 0.148,0.008 0.232,0.008C0.263,0.008 0.284,0.005 0.299,0.002Z" style="fill:rgb(114,118,125);fill-rule:nonzero;"/>
        </g>
        <g transform="matrix(11.25,0,0,11.25,25.5338,6.2091)">
            <path d="M0.456,-0.248C0.456,-0.38 0.392,-0.487 0.253,-0.487C0.133,-0.487 0.043,-0.393 0.043,-0.24C0.043,-0.065 0.14,0.01 0.264,0.01C0.343,0.01 0.404,-0.014 0.455,-0.054L0.442,-0.134C0.39,-0.093 0.34,-0.066 0.271,-0.066C0.188,-0.066 0.135,-0.118 0.132,-0.229L0.456,-0.229L0.456,-0.248ZM0.366,-0.296L0.136,-0.296C0.15,-0.378 0.197,-0.417 0.252,-0.417C0.321,-0.417 0.355,-0.373 0.366,-0.296Z" style="fill:rgb(114,118,125);fill-rule:nonzero;"/>
        </g>
        <g transform="matrix(11.25,0,0,11.25,31.1475,6.2091)">
            <path d="M0.337,-0.402L0.323,-0.487C0.245,-0.483 0.19,-0.434 0.156,-0.38L0.141,-0.477L0.07,-0.477L0.07,-0L0.159,-0L0.159,-0.282C0.191,-0.345 0.258,-0.398 0.337,-0.402Z" style="fill:rgb(114,118,125);fill-rule:nonzero;"/>
        </g>
        <g transform="matrix(11.25,0,0,11.25,34.9725,6.2091)">
            <path d="M0.468,-0L0.468,-0.722L0.379,-0.708L0.379,-0.462C0.349,-0.474 0.306,-0.483 0.259,-0.483C0.143,-0.483 0.043,-0.399 0.043,-0.225C0.043,-0.065 0.128,0.01 0.231,0.01C0.301,0.01 0.35,-0.026 0.386,-0.069L0.397,-0L0.468,-0ZM0.379,-0.153C0.341,-0.102 0.299,-0.069 0.244,-0.069C0.18,-0.069 0.133,-0.124 0.133,-0.229C0.133,-0.347 0.187,-0.408 0.262,-0.408C0.313,-0.408 0.342,-0.4 0.379,-0.381L0.379,-0.153Z" style="fill:rgb(114,118,125);fill-rule:nonzero;"/>
        </g>
        <g transform="matrix(11.25,0,0,11.25,41.025,6.2091)">
            <path d="M0.431,-0L0.431,-0.334C0.431,-0.44 0.375,-0.487 0.259,-0.487C0.185,-0.487 0.131,-0.47 0.074,-0.447L0.086,-0.37C0.138,-0.393 0.193,-0.411 0.251,-0.411C0.306,-0.411 0.342,-0.39 0.342,-0.33L0.342,-0.31C0.143,-0.289 0.041,-0.242 0.041,-0.123C0.041,-0.042 0.095,0.01 0.181,0.01C0.259,0.01 0.311,-0.025 0.349,-0.064L0.359,-0L0.431,-0ZM0.342,-0.131C0.302,-0.09 0.252,-0.064 0.2,-0.064C0.155,-0.064 0.129,-0.089 0.129,-0.128C0.129,-0.177 0.166,-0.225 0.342,-0.242L0.342,-0.131Z" style="fill:rgb(114,118,125);fill-rule:nonzero;"/>
        </g>
        <g transform="matrix(11.25,0,0,11.25,46.5375,6.2091)">
            <path d="M0.46,-0.477L0.369,-0.477L0.242,-0.104L0.112,-0.484L0.024,-0.47L0.198,0.002L0.18,0.051C0.166,0.089 0.141,0.107 0.104,0.107C0.087,0.107 0.069,0.104 0.054,0.1L0.066,0.178C0.075,0.18 0.085,0.182 0.097,0.182C0.176,0.182 0.227,0.153 0.268,0.042L0.46,-0.477Z" style="fill:rgb(114,118,125);fill-rule:nonzero;"/>
        </g>
        <g transform="matrix(11.25,0,0,11.25,54.4463,6.2091)">
            <path d="M0.431,-0L0.431,-0.334C0.431,-0.44 0.375,-0.487 0.259,-0.487C0.185,-0.487 0.131,-0.47 0.074,-0.447L0.086,-0.37C0.138,-0.393 0.193,-0.411 0.251,-0.411C0.306,-0.411 0.342,-0.39 0.342,-0.33L0.342,-0.31C0.143,-0.289 0.041,-0.242 0.041,-0.123C0.041,-0.042 0.095,0.01 0.181,0.01C0.259,0.01 0.311,-0.025 0.349,-0.064L0.359,-0L0.431,-0ZM0.342,-0.131C0.302,-0.09 0.252,-0.064 0.2,-0.064C0.155,-0.064 0.129,-0.089 0.129,-0.128C0.129,-0.177 0.166,-0.225 0.342,-0.242L0.342,-0.131Z" style="fill:rgb(114,118,125);fill-rule:nonzero;"/>
        </g>
        <g transform="matrix(11.25,0,0,11.25,60.06,6.2091)">
            <path d="M0.299,0.002L0.287,-0.074C0.276,-0.072 0.262,-0.071 0.246,-0.071C0.196,-0.071 0.18,-0.095 0.18,-0.134L0.18,-0.402L0.295,-0.402L0.283,-0.477L0.18,-0.477L0.18,-0.649L0.093,-0.636L0.093,-0.477L0.021,-0.477L0.021,-0.402L0.093,-0.402L0.093,-0.118C0.093,-0.022 0.148,0.008 0.232,0.008C0.263,0.008 0.284,0.005 0.299,0.002Z" style="fill:rgb(114,118,125);fill-rule:nonzero;"/>
        </g>
    </g>
</svg>
